<svg xmlns="http://www.w3.org/2000/svg" width="1002" height="770.2" viewBox="0 0 1002 770.2">
  <defs>
    <style>
      .cls-1, .cls-2 {
        fill: #fff;
      }

      .cls-1, .cls-2, .cls-6 {
        stroke: #fff;
        stroke-miterlimit: 10;
        stroke-width: 25px;
      }

      .cls-2, .cls-8 {
        fill-rule: evenodd;
      }

      .cls-3, .cls-6, .cls-8 {
        fill: #1793d1;
      }

      .cls-4 {
        fill: #a19e86;
      }

      .cls-5 {
        fill: #d51e1e;
      }

      .cls-7 {
        fill: #ddd5ad;
      }

      .cls-9 {
        fill: #4c464e;
      }

      .cls-10 {
        fill: #ccbda6;
      }

      .cls-11 {
        fill: #931219;
      }
    </style>
  </defs>
  <g id="borde_blanco" data-name="borde blanco">
    <g>
      <line class="cls-1" x1="710.5" y1="86.1" x2="647.5" y2="99.1"/>
      <rect class="cls-1" x="804.3" y="387.5" width="64.3" height="10" transform="translate(-219.6 -122.7) rotate(-11.7)"/>
    </g>
    <g>
      <line class="cls-1" x1="169.5" y1="420.1" x2="215.5" y2="362.1"/>
      <rect class="cls-1" x="313" y="686" width="74" height="10" transform="translate(-566.4 235.9) rotate(-51.6)"/>
    </g>
    <path class="cls-1" d="M834.8,399.7c-4.2-2.2-8.5-4.3-12.8-6.7,4.3,2.4,8.6,4.5,12.8,6.7l-3.8-2.3L687.5,314.3,366.2,499.2l-.4,370.7,320.7,185.8,321.3-184.9.4-370.7Z" transform="translate(-157.5 -299.9)"/>
    <g>
      <polygon class="cls-1" points="850.4 334.1 850.5 419.5 776.4 462.4 776.1 377 850.4 334.1"/>
      <polygon class="cls-1" points="781.3 373.9 781.4 459.4 707.3 502.2 707.1 416.8 781.3 373.9"/>
      <polygon class="cls-1" points="746 394.2 746.1 479.7 672 522.5 671.7 437.1 746 394.2"/>
    </g>
    <g>
      <polygon class="cls-1" points="706.3 418 706.5 502.9 632.5 545.4 632.2 460.6 706.3 418"/>
      <polygon class="cls-1" points="637.4 457.5 637.5 542.4 563.5 584.9 563.3 500.1 637.4 457.5"/>
      <polygon class="cls-1" points="602.1 477.7 602.2 562.6 528.2 605.1 528 520.3 602.1 477.7"/>
    </g>
    <g>
      <g>
        <polygon class="cls-1" points="208.6 334.1 208.5 418.7 281.9 461.1 282.1 376.6 208.6 334.1"/>
        <polygon class="cls-1" points="277 373.5 276.9 458.2 350.3 500.6 350.5 416 277 373.5"/>
        <polygon class="cls-1" points="312 393.7 311.9 478.3 385.4 520.7 385.6 436.1 312 393.7"/>
      </g>
      <g>
        <polygon class="cls-1" points="351.2 416.5 351.1 501.1 424.5 543.5 424.8 459 351.2 416.5"/>
        <polygon class="cls-1" points="419.6 455.9 419.5 540.6 492.9 583 493.2 498.4 419.6 455.9"/>
        <polygon class="cls-1" points="454.6 476.1 454.5 560.7 528 603.1 528.2 518.5 454.6 476.1"/>
      </g>
    </g>
    <polygon class="cls-1" points="529.5 422.6 850.5 237.5 850.5 279 529.5 464.1 529.5 422.6"/>
    <g>
      <path id="path2518" class="cls-2" d="M780.5,442.8c-26.7,6.8-43.7,11.4-70.7,17.3a64.6,64.6,0,0,0,1.7,23.8c-6.1-9-8.8-16-9.5-22.1-33.9,7.3-83.6,16.8-181.1,34,42.6,6.1,73,12.3,95.9,21.1a62.7,62.7,0,0,1,10.7-7.6l.9-.5c18.3-10,40.9-12.8,50.4-6.2s2.4,20-15.9,30.1a79.8,79.8,0,0,1-10.7,4.9c15,13.2,25.4,30.7,35.6,54.9l13.5-24c-1.3-7.3-1.1-15.7-7.9-28.8,7.4,7.5,11.4,13.5,13.5,18.8C749.9,482.2,757.9,473.5,780.5,442.8Z" transform="translate(-157.5 -299.9)"/>
      <g id="text2638">
        <path id="path3940" class="cls-1" d="M704.4,584l4.8-2.8-1.7-1,.6-.4,4.2,2.4-.7.4-1.7-1-4.8,2.8-.7-.4" transform="translate(-157.5 -299.9)"/>
        <path id="path3942" class="cls-1" d="M707.5,585.8l5.5-3.2,1,.6-2.6,2.9-.6.7,1.1-.4,5.1-1.5.9.6-5.5,3.1-.6-.4,4.6-2.6-6.1,1.8-.6-.4,3.1-3.5-4.6,2.6-.7-.3" transform="translate(-157.5 -299.9)"/>
      </g>
    </g>
    <g>
      <polygon class="cls-1" points="208.5 278.4 529.5 464.1 529.5 422.3 208.5 236.7 208.5 278.4"/>
      <polygon class="cls-1" points="529.5 422.3 529.5 464.1 850.5 278.4 850.5 236.7 529.5 422.3"/>
    </g>
    <polygon class="cls-1" points="529.2 718.8 850.4 539 850.4 456 529.1 636.3 529.2 718.8"/>
    <polygon class="cls-1" points="529.4 718.6 208.5 539.3 208.5 456.5 529.2 636 529.4 718.6"/>
    <polygon class="cls-1" points="529.4 603.1 850.7 423.3 850.6 340.3 529.3 520.6 529.4 603.1"/>
    <g>
      <line class="cls-1" x1="304.5" y1="504.1" x2="126.5" y2="584.1"/>
      <rect class="cls-1" x="275.4" y="839" width="195.2" height="10" transform="translate(-470.7 -72.8) rotate(-24.2)"/>
    </g>
    <g>
      <line class="cls-1" x1="521.5" y1="557.1" x2="299.5" y2="501.1"/>
      <rect class="cls-1" x="563" y="714.5" width="10" height="228.95" transform="translate(-532.2 877.1) rotate(-75.8)"/>
    </g>
    <circle class="cls-1" cx="710.5" cy="86.1" r="21"/>
    <circle class="cls-1" cx="941" cy="82.6" r="33.5"/>
    <circle class="cls-1" cx="935.5" cy="329.1" r="54"/>
    <circle class="cls-1" cx="739.5" cy="397.1" r="34"/>
    <circle class="cls-1" cx="521" cy="557.6" r="48.5"/>
    <circle class="cls-1" cx="127" cy="584.6" r="32.5"/>
    <circle class="cls-1" cx="304.5" cy="504.1" r="39"/>
    <circle class="cls-1" cx="35" cy="487.6" r="22.5"/>
    <circle class="cls-1" cx="169.5" cy="420.1" r="20"/>
    <g>
      <line class="cls-1" x1="707.5" y1="86.1" x2="945.5" y2="80.1"/>
      <rect class="cls-1" x="865" y="378" width="238.1" height="10" transform="translate(-166.8 -275) rotate(-1.4)"/>
    </g>
    <g>
      <line class="cls-1" x1="941.5" y1="80.1" x2="935.5" y2="329.1"/>
      <rect class="cls-1" x="971.5" y="499.5" width="249.1" height="10" transform="translate(407.7 1288.1) rotate(-88.6)"/>
    </g>
    <g>
      <line class="cls-1" x1="933.5" y1="329.1" x2="739.5" y2="397.1"/>
      <rect class="cls-1" x="891.2" y="658" width="205.6" height="10" transform="translate(-320.9 66.3) rotate(-19.3)"/>
    </g>
    <g>
      <line class="cls-1" x1="739.5" y1="397.1" x2="521.5" y2="557.1"/>
      <rect class="cls-1" x="652.8" y="772" width="270.4" height="10" transform="translate(-464.5 316.9) rotate(-36.3)"/>
    </g>
    <g>
      <line class="cls-1" x1="126.5" y1="584.1" x2="34.5" y2="487.1"/>
      <rect class="cls-1" x="233" y="768.7" width="10" height="133.69" transform="translate(-667.1 93.2) rotate(-43.5)"/>
    </g>
    <g>
      <line class="cls-1" x1="34.5" y1="487.1" x2="169.5" y2="420.1"/>
      <rect class="cls-1" x="184.1" y="748.5" width="150.7" height="10" transform="translate(-465.4 -106) rotate(-26.4)"/>
    </g>
    <ellipse class="cls-1" cx="946.4" cy="775.5" rx="43.3" ry="25" transform="translate(-356.5 905.9) rotate(-59.9)"/>
  </g>
  <g id="anillo_bolas" data-name="anillo bolas">
    <line class="cls-3" x1="710.5" y1="86.1" x2="647.5" y2="99.1"/>
    <rect class="cls-3" x="804.3" y="387.5" width="64.3" height="10" transform="translate(-219.6 -122.7) rotate(-11.7)"/>
    <line class="cls-3" x1="169.5" y1="420.1" x2="215.5" y2="362.1"/>
    <rect class="cls-3" x="313" y="686" width="74" height="10" transform="translate(-566.4 235.9) rotate(-51.6)"/>
    <path class="cls-4" d="M834.8,399.7c-4.2-2.2-8.5-4.3-12.8-6.7,4.3,2.4,8.6,4.5,12.8,6.7l-3.8-2.3L687.5,314.3,366.2,499.2l-.4,370.7,320.7,185.8,321.3-184.9.4-370.7Z" transform="translate(-157.5 -299.9)"/>
    <g>
      <polygon class="cls-5" points="208.6 334.1 208.5 418.7 281.9 461.1 282.1 376.6 208.6 334.1"/>
      <polygon class="cls-5" points="277 373.5 276.9 458.2 350.3 500.6 350.5 416 277 373.5"/>
      <polygon class="cls-5" points="312 393.7 311.9 478.3 385.4 520.7 385.6 436.1 312 393.7"/>
    </g>
    <g>
      <polygon class="cls-5" points="351.2 416.5 351.1 501.1 424.5 543.5 424.8 459 351.2 416.5"/>
      <polygon class="cls-5" points="419.6 455.9 419.5 540.6 492.9 583 493.2 498.4 419.6 455.9"/>
      <polygon class="cls-5" points="454.6 476.1 454.5 560.7 528 603.1 528.2 518.5 454.6 476.1"/>
    </g>
    <rect class="cls-6" x="563" y="714.5" width="10" height="228.95" transform="translate(-532.2 877.1) rotate(-75.8)"/>
    <polygon class="cls-5" points="850.4 334.1 850.5 419.5 776.4 462.4 776.1 377 850.4 334.1"/>
    <polygon class="cls-5" points="781.3 373.9 781.4 459.4 707.3 502.2 707.1 416.8 781.3 373.9"/>
    <polygon class="cls-5" points="746 394.2 746.1 479.7 672 522.5 671.7 437.1 746 394.2"/>
    <polygon class="cls-5" points="706.3 418 706.5 502.9 632.5 545.4 632.2 460.6 706.3 418"/>
    <polygon class="cls-5" points="637.4 457.5 637.5 542.4 563.5 584.9 563.3 500.1 637.4 457.5"/>
    <polygon class="cls-5" points="602.1 477.7 602.2 562.6 528.2 605.1 528 520.3 602.1 477.7"/>
    <polygon class="cls-7" points="529.5 422.6 850.5 237.5 850.5 279 529.5 464.1 529.5 422.6"/>
    <path id="path2518-2" data-name="path2518" class="cls-8" d="M780.5,442.8c-26.7,6.8-43.7,11.4-70.7,17.3a64.6,64.6,0,0,0,1.7,23.8c-6.1-9-8.8-16-9.5-22.1-33.9,7.3-83.6,16.8-181.1,34,42.6,6.1,73,12.3,95.9,21.1a62.7,62.7,0,0,1,10.7-7.6l.9-.5c18.3-10,40.9-12.8,50.4-6.2s2.4,20-15.9,30.1a79.8,79.8,0,0,1-10.7,4.9c15,13.2,25.4,30.7,35.6,54.9l13.5-24c-1.3-7.3-1.1-15.7-7.9-28.8,7.4,7.5,11.4,13.5,13.5,18.8C749.9,482.2,757.9,473.5,780.5,442.8Z" transform="translate(-157.5 -299.9)"/>
    <g id="text2638-2" data-name="text2638">
      <path id="path3940-2" data-name="path3940" class="cls-3" d="M704.4,584l4.8-2.8-1.7-1,.6-.4,4.2,2.4-.7.4-1.7-1-4.8,2.8-.7-.4" transform="translate(-157.5 -299.9)"/>
      <path id="path3942-2" data-name="path3942" class="cls-3" d="M707.5,585.8l5.5-3.2,1,.6-2.6,2.9-.6.7,1.1-.4,5.1-1.5.9.6-5.5,3.1-.6-.4,4.6-2.6-6.1,1.8-.6-.4,3.1-3.5-4.6,2.6-.7-.3" transform="translate(-157.5 -299.9)"/>
    </g>
    <polygon class="cls-9" points="529.5 385.1 529 755.8 850.3 570.8 850.7 200.2 529.5 385.1"/>
    <polygon class="cls-7" points="208.5 278.4 529.5 464.1 529.5 422.3 208.5 236.7 208.5 278.4"/>
    <polygon class="cls-5" points="529.4 603.1 850.7 423.3 850.6 340.3 529.3 520.6 529.4 603.1"/>
    <polygon class="cls-7" points="529.5 422.3 529.5 464.1 850.5 278.4 850.5 236.7 529.5 422.3"/>
    <rect class="cls-6" x="891.2" y="658" width="205.6" height="10" transform="translate(-320.9 66.3) rotate(-19.3)"/>
    <polygon class="cls-10" points="529.2 718.8 850.4 539 850.4 456 529.1 636.3 529.2 718.8"/>
    <polygon class="cls-10" points="529.4 718.6 208.5 539.3 208.5 456.5 529.2 636 529.4 718.6"/>
    <line class="cls-3" x1="521.5" y1="557.1" x2="299.5" y2="501.1"/>
    <circle class="cls-3" cx="710.5" cy="86.1" r="21"/>
    <circle class="cls-3" cx="941" cy="82.6" r="33.5"/>
    <circle class="cls-3" cx="35" cy="487.6" r="22.5"/>
    <circle class="cls-3" cx="169.5" cy="420.1" r="20"/>
    <line class="cls-3" x1="707.5" y1="86.1" x2="945.5" y2="80.1"/>
    <rect class="cls-3" x="865" y="378" width="238.1" height="10" transform="translate(-166.8 -275) rotate(-1.4)"/>
    <line class="cls-3" x1="941.5" y1="80.1" x2="935.5" y2="329.1"/>
    <rect class="cls-3" x="971.5" y="499.5" width="249.1" height="10" transform="translate(407.7 1288.1) rotate(-88.6)"/>
    <line class="cls-3" x1="933.5" y1="329.1" x2="739.5" y2="397.1"/>
    <rect class="cls-6" x="652.8" y="772" width="270.4" height="10" transform="translate(-464.5 316.9) rotate(-36.3)"/>
    <polygon class="cls-6" points="292.7 515.6 132.9 585.7 132.1 572.5 291.9 502.3 292.7 515.6"/>
    <circle class="cls-6" cx="304.5" cy="504.1" r="39"/>
    <circle class="cls-6" cx="521" cy="557.6" r="48.5"/>
    <circle class="cls-6" cx="739.5" cy="397.1" r="34"/>
    <rect class="cls-3" x="563" y="714.5" width="10" height="228.95" transform="translate(-532.2 877.1) rotate(-75.8)"/>
    <rect class="cls-3" x="891.2" y="658" width="205.6" height="10" transform="translate(-320.9 66.3) rotate(-19.3)"/>
    <line class="cls-3" x1="739.5" y1="397.1" x2="521.5" y2="557.1"/>
    <rect class="cls-3" x="652.8" y="772" width="270.4" height="10" transform="translate(-464.5 316.9) rotate(-36.3)"/>
    <line class="cls-3" x1="126.5" y1="584.1" x2="34.5" y2="487.1"/>
    <rect class="cls-3" x="233" y="768.7" width="10" height="133.69" transform="translate(-667.1 93.2) rotate(-43.5)"/>
    <line class="cls-3" x1="34.5" y1="487.1" x2="169.5" y2="420.1"/>
    <rect class="cls-3" x="184.1" y="748.5" width="150.7" height="10" transform="translate(-465.4 -106) rotate(-26.4)"/>
    <ellipse class="cls-11" cx="946.4" cy="775.5" rx="43.3" ry="25" transform="translate(-356.5 905.9) rotate(-59.9)"/>
    <polygon class="cls-3" points="292.7 515.6 132.9 585.7 132.1 572.5 291.9 502.3 292.7 515.6"/>
    <circle class="cls-3" cx="304.5" cy="504.1" r="39"/>
    <circle class="cls-3" cx="521" cy="557.6" r="48.5"/>
    <circle class="cls-3" cx="739.5" cy="397.1" r="34"/>
    <circle class="cls-3" cx="935.5" cy="329.1" r="54"/>
    <circle class="cls-3" cx="127" cy="584.6" r="32.5"/>
  </g>
</svg>
